PathFileType	4	(x/y/z)	S01_SL_Cal.trc
DataRate	CameraRate	NumFrames	NumMarkers	Units	OrigDataRate	OrigDataStartFrame	OrigNumFrames
240	240	10	51	mm	240	1	2400
Frame#	Time	Sternum			R.Acromium			L.Acromium			Top.Head			R.ASIS			L.ASIS			R.PSIS			L.PSIS			R.Great.Tro			L.Great.Tro			R.Iliac.Crest			L.Iliac.Crest			V.Sacral			R.Thigh.Upper.Post			R.Thigh.Lower.Ant			R.Thigh.Lower.Post			R.Thigh.Upper.Ant			R.Knee.Lat			R.Knee.Med			R.Shank.Upper.Post			R.Shank.Lower.Ant			R.Shank.Lower.Post			R.Shank.Upper.Ant			R.Ankle.Lat			R.Ankle.Med			R.Heel.Upper			R.Heel.Med			R.Heel.Lat			R.Toe.Lat			R.Toe.Med			R.Toe.Tip			L.Thigh.Upper.Post			L.Thigh.Lower.Ant			L.Thigh.Lower.Post			L.Thigh.Upper.Ant			L.Knee.Lat			L.Knee.Med			L.Shank.Upper.Post			L.Shank.Lower.Ant			L.Shank.Lower.Post			L.Shank.Upper.Ant			L.Ankle.Lat			L.Ankle.Med			L.Heel.Upper			L.Heel.Med			L.Heel.Lat			L.Toe.Lat			L.Toe.Med			L.Toe.Tip			Cervical.Spine			Back			
		X1	Y1	Z1	X2	Y2	Z2	X3	Y3	Z3	X4	Y4	Z4	X5	Y5	Z5	X6	Y6	Z6	X7	Y7	Z7	X8	Y8	Z8	X9	Y9	Z9	X10	Y10	Z10	X11	Y11	Z11	X12	Y12	Z12	X13	Y13	Z13	X14	Y14	Z14	X15	Y15	Z15	X16	Y16	Z16	X17	Y17	Z17	X18	Y18	Z18	X19	Y19	Z19	X20	Y20	Z20	X21	Y21	Z21	X22	Y22	Z22	X23	Y23	Z23	X24	Y24	Z24	X25	Y25	Z25	X26	Y26	Z26	X27	Y27	Z27	X28	Y28	Z28	X29	Y29	Z29	X30	Y30	Z30	X31	Y31	Z31	X32	Y32	Z32	X33	Y33	Z33	X34	Y34	Z34	X35	Y35	Z35	X36	Y36	Z36	X37	Y37	Z37	X38	Y38	Z38	X39	Y39	Z39	X40	Y40	Z40	X41	Y41	Z41	X42	Y42	Z42	X43	Y43	Z43	X44	Y44	Z44	X45	Y45	Z45	X46	Y46	Z46	X47	Y47	Z47	X48	Y48	Z48	X49	Y49	Z49	X50	Y50	Z50	X51	Y51	Z51	

1	0	726.92	1315.5	259.64	580.37	1557.8	438.75	553.83	1565.8	111.89	511.05	1868.7	277.72	705.85	1047.2	418.64	698.77	1047.2	147.41	465.51	1079.9	331.87	459.87	1078.2	228.42	625.82	992.16	500.79	585.45	995.22	72.46	612.73	1143.4	482.86	579.39	1125.3	78.474	450.58	1042.5	278.67	582.59	694.83	496.17	642.28	615	470.73	574.44	606.53	480.68	654.36	704.2	485.75	588.5	537.32	476.46	592.42	527.08	334.63	507.71	390.19	512.61	558.97	297.46	480.67	494.98	320.31	507.37	567.95	370.03	491.33	475.93	111.76	489.81	509.13	109.9	398.2	408.63	78.209	435.58	420.47	47.03	407.07	416.58	48.849	471.65	605.18	34.289	528.96	636.78	39.95	405.73	700.06	54.585	460.94	519.66	726.01	83.795	593.39	644.67	71.987	517.75	635.45	94.874	586	739.34	59.793	552.3	541.33	79.003	586.09	529.32	216.08	480.95	410.61	55.821	538.01	316.07	66.17	476.86	332.88	52.734	542.82	392.97	64.279	460.16	111.53	75.876	490.77	118.03	168.45	390.96	77.733	120.9	401.58	51.296	152.52	398.83	52.87	90.531	602.57	37.479	41.669	628.34	47.017	163.35	689.91	58.41	112.53	476.59	1597.8	285.34	424.84	1277.5	304.49
2	0.0041667	726.89	1315.4	259.55	580.39	1557.8	438.74	553.81	1565.7	111.9	511.1	1868.7	277.65	705.92	1047.1	418.65	698.74	1047.2	147.41	465.49	1079.9	331.89	459.84	1078.2	228.44	625.82	992.16	500.8	585.41	995.22	72.482	612.72	1143.4	482.89	579.5	1125.3	78.576	450.56	1042.4	278.7	582.6	694.84	496.19	642.3	615.03	470.8	574.43	606.52	480.69	654.38	704.22	485.79	588.51	537.32	476.47	592.43	527.1	334.63	507.73	390.23	512.68	558.96	297.46	480.67	495.01	320.33	507.42	567.95	370.03	491.36	475.93	111.76	489.83	509.13	109.87	398.22	408.63	78.21	435.6	420.44	47.046	407.09	416.59	48.855	471.67	605.18	34.286	528.96	636.76	39.943	405.73	700.06	54.589	460.95	519.64	725.99	83.837	593.39	644.67	72.028	517.81	635.41	94.903	585.98	739.35	59.793	552.3	541.32	79.034	586.09	529.32	216.08	480.96	410.65	55.819	538.01	316.06	66.178	476.89	332.92	52.732	542.82	392.96	64.289	459.97	111.59	75.817	490.8	118.04	168.46	390.94	77.853	120.83	401.58	51.296	152.52	398.82	52.871	90.547	602.58	37.48	41.671	628.34	47.028	163.35	689.91	58.414	112.52	476.57	1597.8	285.3	424.9	1277.5	304.46
3	0.0083333	726.85	1315.3	259.45	580.4	1557.8	438.74	553.74	1565.6	111.92	511.15	1868.6	277.57	705.99	1047	418.66	698.71	1047.2	147.42	465.46	1079.9	331.92	459.81	1078.1	228.46	625.82	992.17	500.81	585.36	995.21	72.505	612.71	1143.4	482.91	579.6	1125.3	78.677	450.54	1042.4	278.72	582.6	694.84	496.21	642.32	615.07	470.86	574.43	606.5	480.7	654.39	704.24	485.84	588.52	537.32	476.48	592.44	527.11	334.63	507.75	390.26	512.75	558.95	297.46	480.66	495.03	320.35	507.47	567.95	370.02	491.39	475.94	111.77	489.84	509.13	109.84	398.23	408.62	78.211	435.62	420.41	47.061	407.11	416.59	48.862	471.68	605.17	34.283	528.96	636.74	39.938	405.73	700.06	54.594	460.96	519.62	725.98	83.88	593.39	644.68	72.068	517.86	635.38	94.932	585.96	739.37	59.792	552.29	541.31	79.066	586.09	529.32	216.09	480.97	410.68	55.817	538.01	316.05	66.186	476.91	332.96	52.73	542.83	392.95	64.298	459.79	111.66	75.759	490.84	118.05	168.46	390.91	77.971	120.76	401.59	51.296	152.53	398.81	52.871	90.563	602.58	37.481	41.673	628.34	47.039	163.34	689.91	58.419	112.51	476.55	1597.8	285.27	424.96	1277.5	304.43
4	0.0125	726.82	1315.2	259.37	580.42	1557.7	438.73	553.62	1565.5	111.96	511.21	1868.6	277.5	706.04	1047	418.66	698.68	1047.3	147.42	465.44	1079.9	331.94	459.78	1078.1	228.48	625.81	992.17	500.82	585.32	995.2	72.529	612.71	1143.4	482.93	579.69	1125.3	78.774	450.52	1042.4	278.75	582.61	694.84	496.23	642.34	615.1	470.92	574.42	606.49	480.71	654.41	704.25	485.88	588.53	537.31	476.5	592.46	527.13	334.63	507.77	390.29	512.83	558.94	297.47	480.66	495.05	320.37	507.51	567.95	370.02	491.41	475.95	111.78	489.85	509.13	109.82	398.25	408.61	78.212	435.64	420.38	47.076	407.13	416.59	48.868	471.7	605.17	34.28	528.97	636.72	39.933	405.74	700.06	54.598	460.97	519.6	725.96	83.921	593.39	644.68	72.107	517.9	635.34	94.961	585.94	739.38	59.793	552.29	541.3	79.096	586.09	529.32	216.09	480.98	410.71	55.816	538.01	316.04	66.194	476.93	332.99	52.729	542.83	392.95	64.307	459.62	111.72	75.704	490.87	118.06	168.47	390.89	78.084	120.69	401.59	51.296	152.54	398.81	52.872	90.578	602.59	37.483	41.675	628.34	47.05	163.33	689.9	58.423	112.5	476.54	1597.7	285.23	425.02	1277.5	304.4
5	0.016667	726.79	1315.1	259.29	580.44	1557.7	438.72	553.43	1565.4	112	511.26	1868.6	277.42	706.09	1046.9	418.67	698.65	1047.3	147.43	465.41	1079.9	331.97	459.75	1078.1	228.5	625.81	992.17	500.83	585.27	995.19	72.552	612.7	1143.4	482.96	579.78	1125.3	78.867	450.49	1042.4	278.78	582.62	694.84	496.25	642.36	615.13	470.98	574.42	606.48	480.72	654.43	704.27	485.92	588.54	537.31	476.51	592.47	527.14	334.63	507.79	390.32	512.89	558.94	297.47	480.66	495.08	320.38	507.56	567.94	370.02	491.44	475.95	111.78	489.87	509.13	109.8	398.27	408.6	78.213	435.66	420.36	47.09	407.14	416.59	48.873	471.72	605.16	34.277	528.97	636.69	39.928	405.74	700.06	54.601	460.98	519.58	725.94	83.962	593.39	644.69	72.145	517.95	635.31	94.989	585.91	739.39	59.794	552.28	541.29	79.125	586.09	529.31	216.09	480.99	410.74	55.815	538.01	316.03	66.201	476.95	333.03	52.728	542.83	392.94	64.317	459.46	111.78	75.652	490.9	118.07	168.48	390.87	78.19	120.63	401.59	51.296	152.55	398.8	52.873	90.593	602.59	37.484	41.676	628.35	47.061	163.33	689.9	58.427	112.5	476.52	1597.7	285.2	425.07	1277.5	304.38
6	0.020833	726.76	1315.1	259.21	580.46	1557.7	438.72	553.19	1565.2	112.05	511.32	1868.5	277.34	706.13	1046.8	418.67	698.62	1047.3	147.44	465.38	1079.8	331.99	459.72	1078.1	228.53	625.81	992.18	500.85	585.23	995.19	72.576	612.69	1143.4	482.98	579.85	1125.4	78.953	450.47	1042.3	278.81	582.62	694.84	496.27	642.37	615.16	471.03	574.42	606.46	480.73	654.44	704.29	485.96	588.56	537.31	476.52	592.48	527.16	334.64	507.81	390.34	512.96	558.93	297.47	480.66	495.1	320.4	507.6	567.94	370.02	491.46	475.96	111.78	489.88	509.13	109.78	398.28	408.6	78.214	435.68	420.33	47.103	407.16	416.59	48.878	471.73	605.16	34.274	528.97	636.68	39.924	405.74	700.06	54.605	460.99	519.57	725.93	84	593.39	644.7	72.18	517.99	635.28	95.016	585.88	739.41	59.796	552.27	541.28	79.152	586.09	529.31	216.09	481	410.76	55.815	538.01	316.02	66.209	476.97	333.06	52.727	542.83	392.94	64.326	459.31	111.83	75.604	490.93	118.08	168.48	390.85	78.286	120.57	401.6	51.296	152.56	398.79	52.874	90.606	602.59	37.486	41.678	628.35	47.071	163.32	689.9	58.43	112.49	476.51	1597.7	285.17	425.12	1277.5	304.35
7	0.025	726.73	1315	259.15	580.48	1557.7	438.71	552.87	1565.1	112.12	511.38	1868.5	277.26	706.16	1046.8	418.68	698.58	1047.3	147.44	465.35	1079.8	332.02	459.68	1078	228.55	625.8	992.18	500.86	585.18	995.18	72.6	612.67	1143.4	483	579.9	1125.4	79.032	450.44	1042.3	278.84	582.63	694.84	496.29	642.39	615.19	471.08	574.42	606.45	480.74	654.46	704.3	486	588.57	537.3	476.54	592.49	527.17	334.64	507.83	390.37	513.02	558.92	297.47	480.66	495.12	320.41	507.64	567.94	370.01	491.48	475.96	111.79	489.89	509.13	109.76	398.3	408.59	78.216	435.7	420.31	47.115	407.17	416.59	48.882	471.75	605.15	34.271	528.98	636.66	39.922	405.75	700.06	54.608	461	519.55	725.92	84.037	593.38	644.7	72.212	518.02	635.26	95.041	585.86	739.42	59.799	552.27	541.27	79.177	586.08	529.31	216.1	481.01	410.79	55.817	538.01	316.01	66.216	476.99	333.09	52.728	542.84	392.94	64.334	459.18	111.88	75.562	490.96	118.09	168.49	390.83	78.373	120.52	401.6	51.296	152.57	398.79	52.875	90.618	602.59	37.488	41.679	628.35	47.081	163.32	689.9	58.433	112.49	476.5	1597.7	285.13	425.16	1277.6	304.34
8	0.029167	726.71	1314.9	259.1	580.51	1557.7	438.7	552.48	1565	112.19	511.44	1868.5	277.17	706.18	1046.7	418.69	698.55	1047.3	147.45	465.32	1079.8	332.05	459.65	1078	228.58	625.79	992.18	500.87	585.14	995.18	72.624	612.66	1143.4	483.02	579.95	1125.4	79.103	450.41	1042.3	278.87	582.64	694.84	496.3	642.41	615.21	471.13	574.42	606.44	480.75	654.47	704.31	486.03	588.58	537.3	476.55	592.5	527.18	334.65	507.85	390.39	513.07	558.92	297.47	480.66	495.14	320.42	507.68	567.94	370.01	491.5	475.97	111.79	489.9	509.13	109.74	398.31	408.59	78.217	435.72	420.29	47.126	407.18	416.59	48.885	471.76	605.15	34.268	528.98	636.64	39.92	405.75	700.06	54.611	461	519.52	725.9	84.071	593.38	644.71	72.242	518.04	635.24	95.065	585.83	739.44	59.802	552.26	541.26	79.2	586.08	529.31	216.1	481.01	410.81	55.819	538	316.01	66.222	477	333.11	52.728	542.84	392.93	64.343	459.06	111.92	75.524	490.98	118.09	168.49	390.81	78.448	120.47	401.6	51.296	152.57	398.78	52.876	90.628	602.59	37.49	41.68	628.35	47.09	163.32	689.9	58.435	112.48	476.49	1597.7	285.1	425.2	1277.6	304.32
9	0.033333	726.69	1314.9	259.05	580.53	1557.7	438.69	552.02	1564.8	112.28	511.5	1868.4	277.09	706.19	1046.7	418.69	698.52	1047.3	147.46	465.29	1079.8	332.07	459.61	1078	228.6	625.78	992.18	500.89	585.09	995.18	72.647	612.64	1143.4	483.04	579.97	1125.4	79.166	450.38	1042.2	278.9	582.65	694.85	496.32	642.42	615.23	471.16	574.43	606.44	480.76	654.48	704.32	486.06	588.6	537.3	476.57	592.51	527.19	334.65	507.86	390.4	513.12	558.91	297.47	480.66	495.16	320.43	507.71	567.94	370.01	491.52	475.97	111.79	489.91	509.13	109.73	398.32	408.58	78.218	435.73	420.27	47.135	407.19	416.59	48.888	471.77	605.15	34.265	528.98	636.63	39.918	405.75	700.05	54.614	461.01	519.5	725.89	84.103	593.37	644.72	72.269	518.06	635.22	95.088	585.8	739.45	59.806	552.25	541.26	79.22	586.08	529.31	216.1	481.02	410.83	55.822	538	316	66.229	477.01	333.14	52.73	542.83	392.93	64.351	458.96	111.96	75.492	491	118.1	168.5	390.8	78.513	120.43	401.6	51.297	152.58	398.78	52.878	90.638	602.59	37.492	41.681	628.35	47.098	163.32	689.9	58.437	112.48	476.49	1597.7	285.07	425.23	1277.6	304.31
10	0.0375	726.66	1314.9	259.01	580.55	1557.7	438.68	551.49	1564.7	112.37	511.57	1868.4	277	706.19	1046.7	418.7	698.49	1047.4	147.47	465.26	1079.8	332.1	459.57	1078	228.63	625.77	992.19	500.9	585.05	995.17	72.669	612.63	1143.4	483.07	579.99	1125.4	79.222	450.35	1042.2	278.93	582.65	694.85	496.34	642.44	615.24	471.2	574.43	606.43	480.78	654.49	704.33	486.09	588.61	537.3	476.59	592.52	527.2	334.66	507.88	390.42	513.16	558.91	297.47	480.67	495.18	320.43	507.74	567.94	370	491.54	475.97	111.79	489.93	509.13	109.72	398.33	408.58	78.219	435.74	420.26	47.143	407.2	416.59	48.89	471.78	605.15	34.263	528.98	636.61	39.917	405.75	700.05	54.616	461.01	519.48	725.88	84.133	593.36	644.73	72.292	518.08	635.2	95.109	585.77	739.47	59.81	552.24	541.25	79.239	586.08	529.31	216.11	481.02	410.85	55.826	538	316	66.235	477.02	333.16	52.732	542.83	392.93	64.358	458.88	111.99	75.465	491.02	118.1	168.5	390.79	78.568	120.4	401.6	51.297	152.58	398.77	52.879	90.645	602.59	37.493	41.682	628.35	47.105	163.32	689.89	58.439	112.48	476.49	1597.6	285.04	425.25	1277.6	304.3
